<svg width="643" height="167" viewBox="0 0 643 167" fill="none" xmlns="http://www.w3.org/2000/svg">
<g clip-path="url(#clip0_155_31)">
<g clip-path="url(#clip1_155_31)">
<path d="M140.833 111.894C139.293 115.242 137.56 118.493 135.635 121.649C122.639 142.116 99.6322 155.696 73.545 155.696C47.4577 155.696 24.4509 142.116 11.4554 121.649C9.43384 118.589 7.7011 115.337 6.25716 111.894C3.94685 114.955 1.92532 118.206 0.0963285 121.649C1.92532 124.997 3.94685 128.248 6.25716 131.404C8.76 134.847 11.6479 138.194 14.7283 141.255C22.3331 148.81 31.2855 154.835 41.2006 158.948C42.5483 159.521 43.9922 160.095 45.4362 160.573C54.4849 163.825 63.9187 165.451 73.6412 165.451C83.3638 165.451 92.7976 163.825 101.846 160.573C103.29 160.095 104.638 159.521 106.082 158.948C115.997 154.74 124.853 148.81 132.554 141.255C135.635 138.194 138.426 134.943 141.025 131.404C143.336 128.344 145.357 125.092 147.186 121.649C145.165 118.206 143.047 114.955 140.833 111.894Z" fill="#6000C4"/>
<path d="M132.362 102.044C130.244 99.9401 128.03 97.9317 125.623 96.019C124.757 99.4619 123.505 102.714 122.061 105.774C113.398 123.754 94.819 136.186 73.4486 136.186C52.0782 136.186 33.5957 123.754 24.8358 105.774C23.2956 102.714 22.1404 99.3662 21.2741 96.019C18.9637 97.8361 16.7497 99.8444 14.5356 102.044C14.0543 102.522 13.6693 102.905 13.188 103.383C14.3431 106.73 15.7871 109.982 17.5198 113.138C20.4077 118.302 23.9694 123.084 28.3013 127.388C40.3341 139.342 56.3138 145.941 73.3523 145.941C90.3909 145.941 106.371 139.342 118.403 127.388C122.735 123.084 126.297 118.302 129.185 113.138C130.918 109.982 132.362 106.73 133.517 103.383C133.228 103 132.747 102.522 132.362 102.044Z" fill="#8130D5"/>
<path d="M107.718 85.1164C107.43 88.5593 106.756 91.8109 105.504 94.8713C100.595 107.687 88.0807 116.772 73.4488 116.772C58.8168 116.772 46.3989 107.687 41.3932 94.8713C40.238 91.8109 39.4679 88.5593 39.1791 85.1164C36.0025 86.5509 32.922 88.1768 29.9379 89.9939C30.5155 93.3411 31.4781 96.6884 32.8258 99.7488C35.0398 104.913 38.2165 109.599 42.2596 113.616C50.5382 121.841 61.6084 126.431 73.4488 126.431C85.2891 126.431 96.2631 121.841 104.638 113.616C108.681 109.599 111.858 104.817 114.072 99.7488C115.419 96.5928 116.382 93.3411 116.96 89.9939C113.975 88.1768 110.895 86.5509 107.718 85.1164Z" fill="#9461EA"/>
<path d="M140.833 34.0465C138.33 30.6036 135.442 27.2564 132.362 24.196C124.757 16.6407 115.804 10.6156 105.889 6.50327C104.542 5.92945 103.098 5.35563 101.654 4.87745C92.7013 1.62582 83.1712 0 73.4487 0C63.7261 0 54.2923 1.62582 45.2436 4.87745C43.7997 5.35563 42.452 5.92945 41.008 6.50327C31.0929 10.7113 22.2367 16.6407 14.5357 24.196C11.5516 27.2564 8.66367 30.6036 6.16083 34.0465C3.85052 37.1069 1.829 40.3585 0 43.8014C1.829 47.1487 3.85052 50.4004 6.16083 53.5564C7.70104 50.2091 9.43377 46.9574 11.359 43.8014C24.3545 23.3353 47.3614 9.75491 73.4487 9.75491C99.5359 9.75491 122.543 23.3353 135.538 43.8014C137.56 46.8618 139.293 50.1134 140.736 53.5564C143.047 50.496 145.068 47.2444 146.897 43.8014C145.165 40.3585 143.047 37.1069 140.833 34.0465Z" fill="#6000C4"/>
<path d="M129.281 52.2174C126.393 47.0531 122.832 42.2712 118.5 37.9676C106.467 26.0131 90.4872 19.4142 73.4487 19.4142C56.4101 19.4142 40.4305 26.0131 28.3976 37.9676C24.0657 42.2712 20.504 47.0531 17.6161 52.2174C15.8834 55.3734 14.4395 58.6251 13.2843 61.9723C13.7656 62.4505 14.1507 62.8331 14.632 63.3112C16.7498 65.4152 18.9638 67.4236 21.3704 69.3363C22.2368 65.8934 23.4882 62.6418 24.9321 59.5814C33.5958 41.6018 52.1745 29.1691 73.5449 29.1691C94.9153 29.1691 113.398 41.6018 122.158 59.5814C123.698 62.6418 124.853 65.9891 125.719 69.3363C128.03 67.5192 130.244 65.5109 132.458 63.3112C132.939 62.8331 133.324 62.4505 133.806 61.9723C132.458 58.6251 131.014 55.3734 129.281 52.2174Z" fill="#8130D5"/>
<path d="M114.072 65.6066C111.858 60.4422 108.681 55.756 104.638 51.7393C96.3592 43.5146 85.2889 38.924 73.4486 38.924C61.6082 38.924 50.6343 43.5146 42.3556 51.7393C38.3126 55.756 35.1359 60.5378 32.9219 65.6066C31.5742 68.7626 30.6116 72.0142 30.034 75.3615C33.0181 77.1786 36.0985 78.8044 39.2752 80.2389C39.564 76.796 40.2378 73.5444 41.4893 70.484C46.3987 57.6688 58.9129 48.5833 73.5448 48.5833C88.1768 48.5833 100.595 57.6688 105.6 70.484C106.756 73.5444 107.526 76.796 107.814 80.2389C110.991 78.8044 114.072 77.1786 117.056 75.3615C116.382 72.0142 115.419 68.7626 114.072 65.6066Z" fill="#9461EA"/>
<path d="M73.4487 58.4338C59.9718 58.4338 48.9979 69.3363 48.9979 82.7254C48.9979 96.1145 59.9718 107.017 73.4487 107.017C86.9255 107.017 97.8995 96.1145 97.8995 82.7254C97.8995 69.3363 87.0217 58.4338 73.4487 58.4338ZM73.4487 97.2621C65.3626 97.2621 58.7204 90.7589 58.7204 82.6298C58.7204 74.5007 65.2663 67.9974 73.4487 67.9974C81.631 67.9974 88.1769 74.5007 88.1769 82.6298C88.1769 90.7589 81.631 97.2621 73.4487 97.2621Z" fill="url(#paint0_linear_155_31)"/>
</g>
<path d="M192.842 146.023V15.0933H276.719V34.9756H216.56V70.5209H270.965V90.4033H216.56V146.023H192.842ZM352.839 104.724V47.8256H375.981V146.023H353.542V128.57H352.519C350.303 134.068 346.659 138.564 341.587 142.059C336.558 145.554 330.356 147.301 322.983 147.301C316.547 147.301 310.858 145.874 305.914 143.018C301.012 140.12 297.176 135.922 294.406 130.424C291.636 124.883 290.251 118.192 290.251 110.35V47.8256H313.394V106.769C313.394 112.992 315.098 117.936 318.508 121.601C321.918 125.267 326.393 127.099 331.933 127.099C335.343 127.099 338.646 126.268 341.843 124.606C345.039 122.944 347.66 120.472 349.706 117.19C351.794 113.866 352.839 109.71 352.839 104.724ZM476.491 73.7814L455.394 76.0829C454.797 73.9519 453.753 71.9487 452.261 70.0734C450.812 68.1981 448.852 66.6851 446.38 65.5343C443.908 64.3836 440.882 63.8082 437.301 63.8082C432.485 63.8082 428.436 64.8524 425.155 66.9408C421.916 69.0292 420.317 71.7356 420.36 75.06C420.317 77.9155 421.362 80.2383 423.493 82.0284C425.666 83.8184 429.246 85.2888 434.233 86.4396L450.983 90.0197C460.274 92.0228 467.178 95.1981 471.696 99.5453C476.256 103.893 478.558 109.582 478.601 116.615C478.558 122.795 476.747 128.25 473.166 132.981C469.629 137.669 464.706 141.335 458.399 143.977C452.091 146.619 444.845 147.941 436.662 147.941C424.643 147.941 414.968 145.426 407.638 140.397C400.307 135.325 395.939 128.271 394.532 119.236L417.099 117.062C418.122 121.495 420.296 124.84 423.62 127.099C426.945 129.358 431.271 130.488 436.598 130.488C442.096 130.488 446.507 129.358 449.832 127.099C453.199 124.84 454.882 122.049 454.882 118.724C454.882 115.912 453.796 113.589 451.622 111.756C449.491 109.923 446.167 108.517 441.649 107.537L424.899 104.02C415.48 102.06 408.512 98.7569 403.994 94.1112C399.476 89.423 397.238 83.4988 397.281 76.3386C397.238 70.2865 398.879 65.0442 402.204 60.6117C405.571 56.1366 410.238 52.6843 416.204 50.255C422.214 47.783 429.14 46.547 436.982 46.547C448.489 46.547 457.546 48.9977 464.152 53.899C470.801 58.8003 474.914 65.4278 476.491 73.7814ZM496.784 146.023V47.8256H519.926V146.023H496.784ZM508.419 33.8888C504.754 33.8888 501.6 32.6741 498.957 30.2448C496.315 27.7728 494.994 24.8107 494.994 21.3584C494.994 17.8636 496.315 14.9015 498.957 12.4721C501.6 10.0001 504.754 8.76414 508.419 8.76414C512.127 8.76414 515.281 10.0001 517.881 12.4721C520.523 14.9015 521.844 17.8636 521.844 21.3584C521.844 24.8107 520.523 27.7728 517.881 30.2448C515.281 32.6741 512.127 33.8888 508.419 33.8888ZM571.082 148.005C564.859 148.005 559.255 146.896 554.268 144.68C549.324 142.421 545.403 139.097 542.505 134.707C539.649 130.317 538.221 124.904 538.221 118.469C538.221 112.928 539.244 108.346 541.29 104.724C543.336 101.101 546.127 98.2028 549.665 96.0292C553.202 93.8555 557.187 92.2146 561.62 91.1065C566.095 89.9558 570.719 89.1247 575.493 88.6132C581.247 88.0165 585.913 87.4838 589.494 87.015C593.074 86.5035 595.674 85.7364 597.293 84.7135C598.955 83.648 599.786 82.0071 599.786 79.7908V79.4072C599.786 74.5912 598.359 70.8619 595.503 68.2194C592.647 65.577 588.535 64.2557 583.164 64.2557C577.496 64.2557 573 65.4917 569.675 67.9637C566.393 70.4357 564.177 73.3552 563.026 76.7222L541.418 73.6535C543.123 67.6867 545.936 62.7001 549.857 58.6938C553.778 54.6449 558.573 51.6188 564.241 49.6157C569.91 47.5699 576.175 46.547 583.037 46.547C587.767 46.547 592.477 47.1011 597.165 48.2092C601.853 49.3173 606.137 51.15 610.015 53.7072C613.894 56.2218 617.005 59.6527 619.349 64C621.736 68.3473 622.929 73.7814 622.929 80.3023V146.023H600.681V132.533H599.914C598.508 135.261 596.526 137.818 593.969 140.205C591.454 142.549 588.279 144.446 584.443 145.895C580.65 147.301 576.196 148.005 571.082 148.005ZM577.091 130.999C581.737 130.999 585.764 130.083 589.174 128.25C592.584 126.375 595.205 123.903 597.037 120.834C598.913 117.765 599.85 114.42 599.85 110.797V99.2257C599.126 99.8224 597.89 100.376 596.142 100.888C594.438 101.399 592.52 101.847 590.389 102.23C588.258 102.614 586.148 102.955 584.059 103.253C581.971 103.552 580.16 103.807 578.625 104.02C575.173 104.489 572.083 105.256 569.356 106.322C566.628 107.387 564.475 108.879 562.899 110.797C561.322 112.672 560.533 115.102 560.533 118.085C560.533 122.347 562.089 125.565 565.2 127.739C568.311 129.912 572.275 130.999 577.091 130.999Z" fill="white"/>
</g>
<defs>
<linearGradient id="paint0_linear_155_31" x1="73.0114" y1="58.009" x2="86.5135" y2="93.5145" gradientUnits="userSpaceOnUse">
<stop stop-color="#524CED"/>
<stop offset="0.5" stop-color="#9461EA"/>
<stop offset="1" stop-color="#8130D5"/>
</linearGradient>
<clipPath id="clip0_155_31">
<rect width="642.9" height="166.44" fill="white"/>
</clipPath>
<clipPath id="clip1_155_31">
<rect width="147.1" height="166.44" fill="white"/>
</clipPath>
</defs>
</svg>
