<svg width="148" height="166" viewBox="0 0 148 166" fill="none" xmlns="http://www.w3.org/2000/svg">
<path d="M141.3 112.266C139.755 115.624 138.016 118.887 136.085 122.053C123.046 142.587 99.9628 156.213 73.789 156.213C47.6152 156.213 24.532 142.587 11.4933 122.053C9.4651 118.983 7.72661 115.72 6.27788 112.266C3.9599 115.336 1.93167 118.599 0.0966015 122.053C1.93167 125.412 3.9599 128.674 6.27788 131.84C8.78902 135.295 11.6865 138.653 14.7771 141.724C22.4071 149.304 31.3893 155.349 41.3373 159.475C42.6895 160.051 44.1382 160.627 45.5869 161.106C54.6657 164.369 64.1308 166 73.8856 166C83.6404 166 93.1055 164.369 102.184 161.106C103.633 160.627 104.985 160.051 106.434 159.475C116.382 155.253 125.267 149.304 132.994 141.724C136.085 138.653 138.886 135.391 141.493 131.84C143.811 128.77 145.839 125.507 147.675 122.053C145.646 118.599 143.522 115.336 141.3 112.266Z" fill="#6000C4"/>
<path d="M132.801 102.383C130.676 100.272 128.455 98.2567 126.04 96.3376C125.171 99.7919 123.915 103.054 122.467 106.125C113.774 124.164 95.1337 136.638 73.6924 136.638C52.2511 136.638 33.7073 124.164 24.9183 106.125C23.3729 103.054 22.214 99.696 21.3447 96.3376C19.0267 98.1607 16.8053 100.176 14.5839 102.383C14.101 102.862 13.7147 103.246 13.2318 103.726C14.3908 107.084 15.8395 110.347 17.578 113.513C20.4755 118.695 24.049 123.492 28.3952 127.81C40.468 139.805 56.5007 146.425 73.5958 146.425C90.6909 146.425 106.724 139.805 118.796 127.81C123.143 123.492 126.716 118.695 129.614 113.513C131.352 110.347 132.801 107.084 133.96 103.726C133.67 103.342 133.187 102.862 132.801 102.383Z" fill="#8130D5"/>
<path d="M108.076 85.3988C107.786 88.8532 107.11 92.1156 105.854 95.1861C100.929 108.044 88.373 117.16 73.6925 117.16C59.0119 117.16 46.5528 108.044 41.5305 95.1861C40.3715 92.1156 39.5989 88.8532 39.3091 85.3988C36.1219 86.8381 33.0313 88.4693 30.0372 90.2925C30.6167 93.6508 31.5825 97.0092 32.9347 100.08C35.1561 105.261 38.3433 109.963 42.3998 113.993C50.7058 122.245 61.8128 126.851 73.6925 126.851C85.5721 126.851 96.5825 122.245 104.985 113.993C109.042 109.963 112.229 105.165 114.45 100.08C115.802 96.9133 116.768 93.6508 117.348 90.2925C114.354 88.4693 111.263 86.8381 108.076 85.3988Z" fill="#9461EA"/>
<path d="M141.3 34.1595C138.789 30.7052 135.892 27.3468 132.801 24.2763C125.171 16.6959 116.189 10.6509 106.241 6.52485C104.889 5.94913 103.44 5.37341 101.991 4.89364C93.0089 1.63121 83.4472 0 73.6924 0C63.9376 0 54.4725 1.63121 45.3938 4.89364C43.945 5.37341 42.5929 5.94913 41.1441 6.52485C31.1961 10.7468 22.3105 16.6959 14.5839 24.2763C11.5899 27.3468 8.69242 30.7052 6.18128 34.1595C3.8633 37.23 1.83507 40.4925 0 43.9468C1.83507 47.3052 3.8633 50.5676 6.18128 53.7341C7.7266 50.3757 9.46508 47.1133 11.3967 43.9468C24.4354 23.4127 47.5186 9.78728 73.6924 9.78728C99.8663 9.78728 122.949 23.4127 135.988 43.9468C138.016 47.0173 139.755 50.2798 141.204 53.7341C143.522 50.6636 145.55 47.4011 147.385 43.9468C145.646 40.4925 143.522 37.23 141.3 34.1595Z" fill="#6000C4"/>
<path d="M129.71 52.3907C126.813 47.2092 123.239 42.4116 118.893 38.0936C106.82 26.0994 90.7875 19.4786 73.6924 19.4786C56.5973 19.4786 40.5646 26.0994 28.4918 38.0936C24.1456 42.4116 20.5721 47.2092 17.6746 52.3907C15.9361 55.5572 14.4874 58.8196 13.3284 62.178C13.8113 62.6578 14.1976 63.0416 14.6805 63.5214C16.8054 65.6323 19.0267 67.6474 21.4413 69.5665C22.3106 66.1121 23.5661 62.8497 25.0149 59.7792C33.7073 41.7399 52.3477 29.2659 73.789 29.2659C95.2303 29.2659 113.774 41.7399 122.563 59.7792C124.108 62.8497 125.267 66.2081 126.137 69.5665C128.455 67.7433 130.676 65.7283 132.897 63.5214C133.38 63.0416 133.767 62.6578 134.25 62.178C132.897 58.8196 131.449 55.5572 129.71 52.3907Z" fill="#8130D5"/>
<path d="M114.45 65.8243C112.229 60.6428 109.042 55.941 104.985 51.911C96.679 43.659 85.572 39.0532 73.6924 39.0532C61.8127 39.0532 50.8023 43.659 42.4962 51.911C38.4398 55.941 35.2525 60.7387 33.0311 65.8243C31.679 68.9907 30.7132 72.2532 30.1337 75.6116C33.1277 77.4347 36.2184 79.0659 39.4056 80.5052C39.6953 77.0509 40.3714 73.7884 41.627 70.7179C46.5527 57.8601 59.1084 48.7445 73.7889 48.7445C88.4695 48.7445 100.929 57.8601 105.951 70.7179C107.11 73.7884 107.883 77.0509 108.172 80.5052C111.36 79.0659 114.45 77.4347 117.444 75.6116C116.768 72.2532 115.802 68.9907 114.45 65.8243Z" fill="#9461EA"/>
<path d="M73.6924 58.6277C60.1708 58.6277 49.1604 69.5665 49.1604 83C49.1604 96.4335 60.1708 107.372 73.6924 107.372C87.2139 107.372 98.2243 96.4335 98.2243 83C98.2243 69.5665 87.3105 58.6277 73.6924 58.6277ZM73.6924 97.5849C65.5794 97.5849 58.9152 91.0601 58.9152 82.904C58.9152 74.748 65.4829 68.2231 73.6924 68.2231C81.9019 68.2231 88.4695 74.748 88.4695 82.904C88.4695 91.0601 81.9019 97.5849 73.6924 97.5849Z" fill="url(#paint0_linear_177_38)"/>
<defs>
<linearGradient id="paint0_linear_177_38" x1="73.2537" y1="58.2015" x2="86.8006" y2="93.8249" gradientUnits="userSpaceOnUse">
<stop stop-color="#524CED"/>
<stop offset="0.5" stop-color="#9461EA"/>
<stop offset="1" stop-color="#8130D5"/>
</linearGradient>
</defs>
</svg>
