<svg width="643" height="167" viewBox="0 0 643 167" fill="none" xmlns="http://www.w3.org/2000/svg">
<path d="M192.842 149.023V18.0937H276.719V37.9761H216.56V73.5214H270.965V93.4037H216.56V149.023H192.842ZM352.839 107.724V50.8261H375.981V149.023H353.542V131.57H352.519C350.303 137.068 346.659 141.565 341.587 145.06C336.558 148.554 330.356 150.302 322.983 150.302C316.547 150.302 310.858 148.874 305.914 146.018C301.012 143.12 297.176 138.922 294.406 133.424C291.636 127.884 290.251 121.192 290.251 113.35V50.8261H313.394V109.77C313.394 115.992 315.098 120.936 318.508 124.602C321.918 128.267 326.393 130.1 331.933 130.1C335.343 130.1 338.646 129.269 341.843 127.607C345.039 125.944 347.66 123.472 349.706 120.191C351.794 116.866 352.839 112.711 352.839 107.724ZM476.491 76.7818L455.394 79.0833C454.797 76.9523 453.753 74.9492 452.261 73.0739C450.812 71.1986 448.852 69.6856 446.38 68.5348C443.908 67.3841 440.882 66.8087 437.301 66.8087C432.485 66.8087 428.436 67.8529 425.155 69.9413C421.916 72.0297 420.317 74.7361 420.36 78.0604C420.317 80.916 421.362 83.2388 423.493 85.0289C425.666 86.8189 429.246 88.2893 434.233 89.4401L450.983 93.0202C460.274 95.0233 467.178 98.1985 471.696 102.546C476.256 106.893 478.558 112.583 478.601 119.615C478.558 125.795 476.747 131.251 473.166 135.981C469.629 140.67 464.706 144.335 458.399 146.977C452.091 149.62 444.845 150.941 436.662 150.941C424.643 150.941 414.968 148.427 407.638 143.397C400.307 138.326 395.939 131.272 394.532 122.236L417.099 120.063C418.122 124.495 420.296 127.841 423.62 130.1C426.945 132.359 431.271 133.488 436.598 133.488C442.096 133.488 446.507 132.359 449.832 130.1C453.199 127.841 454.882 125.049 454.882 121.725C454.882 118.912 453.796 116.589 451.622 114.756C449.491 112.924 446.167 111.517 441.649 110.537L424.899 107.021C415.48 105.06 408.512 101.757 403.994 97.1117C399.476 92.4235 397.238 86.4993 397.281 79.3391C397.238 73.287 398.879 68.0447 402.204 63.6122C405.571 59.137 410.238 55.6848 416.204 53.2554C422.214 50.7835 429.14 49.5475 436.982 49.5475C448.489 49.5475 457.546 51.9982 464.152 56.8995C470.801 61.8008 474.914 68.4283 476.491 76.7818ZM496.784 149.023V50.8261H519.926V149.023H496.784ZM508.419 36.8893C504.754 36.8893 501.6 35.6746 498.957 33.2452C496.315 30.7732 494.994 27.8111 494.994 24.3589C494.994 20.864 496.315 17.9019 498.957 15.4726C501.6 13.0006 504.754 11.7646 508.419 11.7646C512.127 11.7646 515.281 13.0006 517.881 15.4726C520.523 17.9019 521.844 20.864 521.844 24.3589C521.844 27.8111 520.523 30.7732 517.881 33.2452C515.281 35.6746 512.127 36.8893 508.419 36.8893ZM571.082 151.005C564.859 151.005 559.255 149.897 554.268 147.681C549.324 145.422 545.403 142.097 542.505 137.708C539.649 133.318 538.221 127.905 538.221 121.469C538.221 115.929 539.244 111.347 541.29 107.724C543.336 104.101 546.127 101.203 549.665 99.0296C553.202 96.856 557.187 95.2151 561.62 94.107C566.095 92.9562 570.719 92.1251 575.493 91.6137C581.247 91.017 585.913 90.4843 589.494 90.0154C593.074 89.504 595.674 88.7368 597.293 87.7139C598.955 86.6484 599.786 85.0075 599.786 82.7913V82.4077C599.786 77.5916 598.359 73.8623 595.503 71.2199C592.647 68.5774 588.535 67.2562 583.164 67.2562C577.496 67.2562 573 68.4922 569.675 70.9642C566.393 73.4361 564.177 76.3556 563.026 79.7226L541.418 76.654C543.123 70.6871 545.936 65.7006 549.857 61.6943C553.778 57.6453 558.573 54.6193 564.241 52.6161C569.91 50.5704 576.175 49.5475 583.037 49.5475C587.767 49.5475 592.477 50.1015 597.165 51.2097C601.853 52.3178 606.137 54.1505 610.015 56.7077C613.894 59.2223 617.005 62.6532 619.349 67.0005C621.736 71.3478 622.929 76.7818 622.929 83.3027V149.023H600.681V135.534H599.914C598.508 138.262 596.526 140.819 593.969 143.206C591.454 145.55 588.279 147.446 584.443 148.895C580.65 150.302 576.196 151.005 571.082 151.005ZM577.091 134C581.737 134 585.764 133.083 589.174 131.251C592.584 129.375 595.205 126.903 597.037 123.835C598.913 120.766 599.85 117.42 599.85 113.798V102.226C599.126 102.823 597.89 103.377 596.142 103.888C594.438 104.4 592.52 104.847 590.389 105.231C588.258 105.614 586.148 105.955 584.059 106.254C581.971 106.552 580.16 106.808 578.625 107.021C575.173 107.49 572.083 108.257 569.356 109.322C566.628 110.388 564.475 111.88 562.899 113.798C561.322 115.673 560.533 118.102 560.533 121.086C560.533 125.348 562.089 128.565 565.2 130.739C568.311 132.913 572.275 134 577.091 134Z" fill="#221C35"/>
<path d="M140.833 111.895C139.293 115.242 137.56 118.493 135.635 121.649C122.639 142.116 99.6322 155.696 73.5449 155.696C47.4577 155.696 24.4508 142.116 11.4553 121.649C9.43379 118.589 7.70106 115.337 6.25711 111.895C3.9468 114.955 1.92528 118.207 0.096282 121.649C1.92528 124.997 3.9468 128.248 6.25711 131.404C8.75995 134.847 11.6478 138.195 14.7283 141.255C22.333 148.81 31.2855 154.835 41.2006 158.948C42.5483 159.521 43.9922 160.095 45.4361 160.573C54.4849 163.825 63.9186 165.451 73.6412 165.451C83.3638 165.451 92.7975 163.825 101.846 160.573C103.29 160.095 104.638 159.521 106.082 158.948C115.997 154.74 124.853 148.81 132.554 141.255C135.635 138.195 138.426 134.943 141.025 131.404C143.336 128.344 145.357 125.092 147.186 121.649C145.165 118.207 143.047 114.955 140.833 111.895Z" fill="#6000C4"/>
<path d="M132.362 102.044C130.244 99.94 128.03 97.9317 125.623 96.0189C124.757 99.4618 123.505 102.713 122.061 105.774C113.398 123.753 94.819 136.186 73.4487 136.186C52.0783 136.186 33.5958 123.753 24.8358 105.774C23.2956 102.713 22.1405 99.3662 21.2741 96.0189C18.9638 97.836 16.7497 99.8444 14.5357 102.044C14.0544 102.522 13.6693 102.905 13.188 103.383C14.3432 106.73 15.7871 109.982 17.5199 113.138C20.4077 118.302 23.9695 123.084 28.3013 127.388C40.3342 139.342 56.3138 145.941 73.3524 145.941C90.3909 145.941 106.371 139.342 118.403 127.388C122.735 123.084 126.297 118.302 129.185 113.138C130.918 109.982 132.362 106.73 133.517 103.383C133.228 103 132.747 102.522 132.362 102.044Z" fill="#8130D5"/>
<path d="M107.718 85.1164C107.43 88.5593 106.756 91.8109 105.504 94.8713C100.595 107.687 88.0807 116.772 73.4487 116.772C58.8167 116.772 46.3988 107.687 41.3931 94.8713C40.238 91.8109 39.4679 88.5593 39.1791 85.1164C36.0024 86.5509 32.922 88.1767 29.9378 89.9938C30.5154 93.3411 31.4781 96.6884 32.8257 99.7487C35.0398 104.913 38.2165 109.599 42.2595 113.616C50.5381 121.841 61.6084 126.431 73.4487 126.431C85.2891 126.431 96.263 121.841 104.638 113.616C108.681 109.599 111.858 104.817 114.072 99.7487C115.419 96.5927 116.382 93.3411 116.96 89.9938C113.975 88.1767 110.895 86.5509 107.718 85.1164Z" fill="#9461EA"/>
<path d="M140.833 34.0465C138.33 30.6036 135.442 27.2564 132.362 24.196C124.757 16.6407 115.804 10.6156 105.889 6.50327C104.542 5.92945 103.098 5.35564 101.654 4.87745C92.7013 1.62582 83.1712 0 73.4487 0C63.7261 0 54.2923 1.62582 45.2436 4.87745C43.7997 5.35564 42.452 5.92945 41.008 6.50327C31.0929 10.7113 22.2367 16.6407 14.5357 24.196C11.5516 27.2564 8.66367 30.6036 6.16083 34.0465C3.85052 37.1069 1.829 40.3585 0 43.8014C1.829 47.1487 3.85052 50.4004 6.16083 53.5564C7.70104 50.2091 9.43377 46.9574 11.359 43.8014C24.3545 23.3353 47.3614 9.75491 73.4487 9.75491C99.5359 9.75491 122.543 23.3353 135.538 43.8014C137.56 46.8618 139.293 50.1134 140.736 53.5564C143.047 50.496 145.068 47.2444 146.897 43.8014C145.165 40.3585 143.047 37.1069 140.833 34.0465Z" fill="#6000C4"/>
<path d="M129.281 52.2174C126.393 47.0531 122.832 42.2713 118.5 37.9676C106.467 26.0131 90.4872 19.4142 73.4487 19.4142C56.4101 19.4142 40.4305 26.0131 28.3976 37.9676C24.0658 42.2713 20.504 47.0531 17.6161 52.2174C15.8834 55.3734 14.4395 58.6251 13.2843 61.9724C13.7656 62.4505 14.1507 62.8331 14.632 63.3113C16.7498 65.4153 18.9638 67.4236 21.3704 69.3364C22.2368 65.8934 23.4882 62.6418 24.9321 59.5814C33.5958 41.6018 52.1745 29.1691 73.5449 29.1691C94.9153 29.1691 113.398 41.6018 122.158 59.5814C123.698 62.6418 124.853 65.9891 125.719 69.3364C128.03 67.5193 130.244 65.5109 132.458 63.3113C132.939 62.8331 133.324 62.4505 133.806 61.9724C132.458 58.6251 131.014 55.3734 129.281 52.2174Z" fill="#8130D5"/>
<path d="M114.072 65.6065C111.858 60.4422 108.681 55.756 104.638 51.7393C96.3592 43.5145 85.289 38.924 73.4486 38.924C61.6083 38.924 50.6343 43.5145 42.3557 51.7393C38.3126 55.756 35.1359 60.5378 32.9219 65.6065C31.5742 68.7626 30.6116 72.0142 30.034 75.3615C33.0182 77.1785 36.0986 78.8044 39.2752 80.2389C39.564 76.796 40.2379 73.5444 41.4893 70.484C46.3987 57.6687 58.9129 48.5833 73.5449 48.5833C88.1768 48.5833 100.595 57.6687 105.6 70.484C106.756 73.5444 107.526 76.796 107.814 80.2389C110.991 78.8044 114.072 77.1785 117.056 75.3615C116.382 72.0142 115.419 68.7626 114.072 65.6065Z" fill="#9461EA"/>
<path d="M73.4486 58.4338C59.9718 58.4338 48.9978 69.3364 48.9978 82.7254C48.9978 96.1145 59.9718 107.017 73.4486 107.017C86.9254 107.017 97.8994 96.1145 97.8994 82.7254C97.8994 69.3364 87.0217 58.4338 73.4486 58.4338ZM73.4486 97.2622C65.3625 97.2622 58.7204 90.7589 58.7204 82.6298C58.7204 74.5007 65.2663 67.9974 73.4486 67.9974C81.631 67.9974 88.1768 74.5007 88.1768 82.6298C88.1768 90.7589 81.631 97.2622 73.4486 97.2622Z" fill="url(#paint0_linear_148_31)"/>
<defs>
<linearGradient id="paint0_linear_148_31" x1="73.0114" y1="58.009" x2="86.5135" y2="93.5145" gradientUnits="userSpaceOnUse">
<stop stop-color="#524CED"/>
<stop offset="0.5" stop-color="#9461EA"/>
<stop offset="1" stop-color="#8130D5"/>
</linearGradient>
</defs>
</svg>
